# xmcd CD database file
#
# Track frame offsets:
#	150
#	26000
#	50937
#	80637
#	106975
#	118525
#	142487
#	170262
#	194700
#	217125
#	224437
#	245475
#
# Disc length: 3464 seconds
#
# Revision: 0
# Processed by: cddbd v1.4PL0 Copyright (c) Steve Scherf et al.
# Submitted via: CDex 1.50
#
DISCID=c60d860c
DTITLE=Various Artist - Take Five Sweeca best collection
DYEAR=2000
DGENRE=Jazz
TTITLE0=Harvey Mason - Take Five
TTITLE1=Latin Yaro - La Comparsa
TTITLE2=Harvey Mason - 8:22am
TTITLE3=Paul Jackson Jr., Earl Klugh - Reunited
TTITLE4=David Garfield and friends - Twenty-One Drum Salute
TTITLE5=Latin Yaro - I Dream Of Jeannie
TTITLE6=Latin Yaro - Georgia On My Mind
TTITLE7=Don Grolnick - Medianoche
TTITLE8=Don Grolnick - Rojo y Negro
TTITLE9=David Garfield and Friends - Stuffy
TTITLE10=Michael White Project - One Last Cry
TTITLE11=Latin Yaro - Dejala Que Baile Com
EXTD=YEAR: 2000
EXTT0=
EXTT1=
EXTT2=
EXTT3=
EXTT4=
EXTT5=
EXTT6=
EXTT7=
EXTT8=
EXTT9=
EXTT10=
EXTT11=
PLAYORDER=
